<?xml version="1.0" standalone="no"?>
<!DOCTYPE svg PUBLIC "-//W3C//DTD SVG 20010904//EN"
 "http://www.w3.org/TR/2001/REC-SVG-20010904/DTD/svg10.dtd">
<svg version="1.0" xmlns="http://www.w3.org/2000/svg"
 width="284.000000pt" height="284.000000pt" viewBox="0 0 284.000000 284.000000"
 preserveAspectRatio="xMidYMid meet">

<g transform="translate(0.000000,284.000000) scale(0.100000,-0.100000)"
fill="#1890ff" stroke="none">
<path d="M1112 2828 c-12 -6 -25 -22 -28 -35 -9 -36 5 -146 22 -164 11 -12 12
-22 3 -48 -13 -38 -28 -47 -99 -56 -78 -10 -109 -26 -175 -85 -31 -28 -86 -65
-122 -81 -36 -16 -77 -37 -91 -47 -15 -10 -46 -24 -70 -31 -24 -7 -57 -25 -74
-40 -59 -53 -2 -69 86 -25 28 14 101 43 161 64 61 21 131 46 157 56 26 10 49
16 52 13 3 -3 17 -57 31 -119 14 -63 29 -118 33 -122 22 -22 297 -36 317 -16
11 10 35 110 44 182 13 96 27 108 144 123 50 7 122 12 159 12 37 1 79 6 94 11
18 7 44 7 83 0 31 -6 88 -10 126 -8 l70 3 -80 8 c-105 11 -160 28 -159 48 1
14 -18 18 -130 24 -72 4 -160 13 -195 21 -35 9 -94 15 -130 14 -105 -1 -129 7
-137 44 -3 18 -1 59 5 91 6 32 11 73 11 91 0 58 -57 97 -108 72z"/>
<path d="M2613 2772 c-16 -10 -33 -57 -33 -91 0 -16 12 -54 26 -85 23 -50 24
-59 12 -83 l-13 -28 -155 -8 c-228 -11 -417 -8 -473 8 -38 11 -60 12 -98 4
-54 -12 -57 -29 -5 -29 19 0 52 -6 74 -14 23 -8 53 -14 69 -14 15 0 62 -4 103
-10 41 -6 120 -16 175 -22 55 -6 123 -16 152 -21 50 -10 52 -11 43 -35 -6 -14
-10 -29 -10 -34 0 -11 88 36 120 65 14 13 36 28 49 35 42 22 19 -11 -41 -60
-40 -32 -54 -48 -47 -57 14 -17 -16 -71 -47 -85 -21 -10 -22 -13 -10 -20 23
-13 49 -112 43 -166 -2 -26 -17 -81 -32 -122 -39 -106 -44 -230 -16 -412 17
-111 20 -162 15 -270 -5 -105 -2 -164 14 -283 40 -290 41 -277 -16 -387 -5
-11 52 -10 81 1 23 9 24 12 19 88 -3 55 4 125 22 236 14 87 26 169 26 182 0
14 5 25 10 25 6 0 10 -6 10 -12 0 -7 7 -103 17 -212 16 -196 15 -228 -12 -298
-6 -16 -1 -18 38 -18 25 0 49 5 52 10 4 6 1 43 -4 83 -9 57 -8 92 4 167 51
319 50 304 30 428 l-19 113 25 142 c15 88 24 182 24 247 0 92 -4 117 -33 203
-42 126 -42 185 -1 332 45 160 37 193 -54 209 -45 8 -77 37 -77 69 0 12 9 40
20 62 24 46 25 93 6 140 -12 28 -20 35 -43 35 -15 0 -33 -4 -40 -8z"/>
<path d="M125 2446 c-14 -14 -26 -41 -30 -67 -5 -37 -1 -55 25 -112 42 -89 37
-108 -35 -137 -41 -17 -57 -29 -61 -47 -11 -41 3 -116 42 -229 42 -124 42
-155 -5 -262 -45 -104 -55 -149 -54 -257 0 -74 8 -132 29 -220 16 -66 28 -141
26 -167 -1 -27 -3 -123 -5 -215 -2 -158 0 -174 27 -273 22 -78 30 -135 34
-224 l5 -118 39 5 c21 3 45 11 53 17 13 11 12 17 -5 45 -31 51 -44 138 -31
220 6 38 13 96 17 128 4 32 10 55 14 50 4 -4 16 -53 25 -107 14 -77 17 -128
12 -228 -6 -124 -6 -128 14 -128 15 0 71 22 86 34 2 2 -6 20 -17 41 -26 50
-25 80 5 272 24 155 32 346 16 418 -3 17 5 107 19 201 22 158 23 179 12 270
-7 58 -27 141 -49 204 -23 67 -38 130 -41 175 -4 63 -1 74 22 108 18 26 26 51
26 81 0 74 7 77 221 70 147 -5 201 -2 269 11 47 9 121 16 166 15 59 -1 84 3
93 14 10 12 6 16 -24 26 -20 7 -64 11 -98 9 -147 -7 -338 3 -459 23 -71 12
-125 24 -122 27 3 3 31 15 62 28 46 17 52 22 29 22 -33 1 -70 18 -63 30 6 9
-103 -15 -158 -35 -47 -16 -52 -14 -60 30 -5 26 0 46 25 92 36 69 35 120 -2
160 -29 30 -63 31 -94 0z"/>
<path d="M1741 2377 c-19 -23 -23 -70 -11 -132 23 -121 23 -119 0 -148 l-21
-27 -144 0 c-79 0 -155 -4 -169 -10 -14 -5 -76 -10 -137 -12 -107 -2 -112 -3
-139 -30 -27 -27 -32 -28 -137 -29 l-108 -2 100 -8 c55 -4 194 -21 309 -38
182 -27 211 -34 225 -53 31 -42 51 -83 52 -108 0 -14 15 -74 33 -134 35 -118
35 -108 0 -267 -27 -126 -11 -366 37 -550 17 -68 20 -94 13 -144 -15 -106 -8
-203 25 -335 45 -180 49 -230 22 -274 l-22 -35 37 -16 c67 -28 81 -28 140 -1
55 26 56 27 39 46 -25 27 -21 77 16 226 28 111 33 147 34 254 0 69 -2 141 -4
160 -2 19 4 60 13 90 8 30 23 130 32 223 18 179 15 247 -22 406 -15 69 -15 80
-1 140 9 36 21 107 27 156 15 125 51 210 101 236 21 10 40 23 44 29 3 5 36 26
73 46 37 21 102 63 146 93 43 31 97 66 119 79 43 23 57 38 57 60 0 20 -74 15
-103 -8 -14 -12 -48 -30 -74 -41 -26 -11 -71 -31 -99 -45 -28 -14 -100 -34
-160 -44 -69 -12 -118 -27 -136 -40 -15 -11 -40 -20 -56 -20 -26 0 -29 4 -39
53 -7 34 -7 60 -1 77 16 40 15 154 -1 173 -17 21 -94 23 -110 4z"/>
<path d="M2390 2134 c-76 -63 -77 -64 -55 -64 10 0 42 25 71 55 65 67 58 71
-16 9z"/>
<path d="M793 1973 c9 -2 25 -2 35 0 9 3 1 5 -18 5 -19 0 -27 -2 -17 -5z"/>
<path d="M996 1928 c-47 -153 -49 -308 -9 -495 24 -111 27 -146 25 -268 -3
-129 -1 -150 28 -265 39 -153 43 -239 13 -298 -11 -23 -19 -42 -18 -42 1 0 22
7 45 15 48 17 97 19 132 6 13 -4 35 -11 50 -15 l27 -6 -19 42 c-25 55 -25 74
4 221 28 141 39 286 28 372 -5 45 -3 76 10 122 26 99 40 280 33 427 -9 158
-13 166 -94 166 -31 0 -96 7 -146 15 -109 18 -105 18 -109 3z"/>
<path d="M1312 575 c9 -21 20 -23 107 -30 53 -4 116 -11 140 -16 52 -11 58 -7
43 26 -11 24 -15 25 -114 25 -57 1 -122 4 -145 9 -40 8 -41 7 -31 -14z"/>
<path d="M2270 560 c-107 -4 -216 -8 -242 -9 -43 -1 -48 -4 -48 -23 0 -23 2
-23 127 -23 134 -1 433 -9 433 -12 0 -8 -214 -131 -343 -198 -150 -78 -287
-174 -287 -201 0 -13 22 -24 48 -24 8 0 36 18 62 39 63 53 169 120 266 169 45
23 128 71 184 108 57 36 129 79 162 94 l60 28 -44 6 c-23 3 -61 5 -83 5 -96
-3 -128 8 -106 35 8 9 12 15 10 14 -2 -1 -92 -5 -199 -8z"/>
<path d="M880 517 c-47 -18 -155 -69 -241 -113 -85 -45 -182 -91 -214 -103
-33 -13 -65 -27 -72 -33 -12 -10 -8 -65 6 -80 4 -5 47 22 96 58 115 85 153
104 362 180 94 35 193 74 220 89 l48 25 -47 -6 c-32 -4 -48 -3 -48 5 0 17 -17
13 -110 -22z"/>
<path d="M377 135 l-59 -32 279 -7 c153 -3 307 -11 343 -16 36 -6 157 -14 270
-20 113 -5 245 -16 293 -25 92 -16 107 -13 140 23 18 19 18 20 0 26 -66 20
-189 29 -483 36 -279 6 -353 11 -444 29 -66 12 -144 21 -195 20 -77 -1 -92 -5
-144 -34z"/>
</g>
</svg>
